# xmcd
#
# Track frame offsets: 
#        150
#        17698
#        34655
#        56033
#        69636
#        84637
#        105944
#        119593
#        130497
#        144806
#        155327
#        166078
#
# Disc length: 2512 seconds
#
# Revision: 0
# Processed by: cddbd v1.5.2PL0 Copyright (c) Steve Scherf et al.
# Submitted via: ExactAudioCopyFreeDBPlugin 1.0
#
DISCID=9809ce0c
DTITLE=Various Artist - Home for Christmas: Voices from the Heartland
DYEAR=2007
DGENRE=Christmas
TTITLE0=Riders In The Sky - I'll Be Home for Christmas
TTITLE1=Sam Moore - Santa Claus Is Coming To Town
TTITLE2=Roomful Of Blues - Have Yourself a Merry Little Christmas
TTITLE3=It Came Upon a Midnight Clear/Joy to the World/Doyle Lawson and 
TTITLE3=Quicksilver - The First Noel
TTITLE4=Charles Brown - Please Come Home For Christmas
TTITLE5=Deana Carter - The Christmas Song
TTITLE6=Wilson Pickett - Jingle Bells
TTITLE7=Leon Redbone - Blue Christmas
TTITLE8=The Persuasions - You're All I Want for Christmas
TTITLE9=Rhonda Vincent - Let It Snow
TTITLE10=Shirley Alston - Winter Wonderland
TTITLE11=Irma Thomas - Oh, Holy Night
EXTD=
EXTT0=
EXTT1=
EXTT2=
EXTT3=
EXTT4=
EXTT5=
EXTT6=
EXTT7=
EXTT8=
EXTT9=
EXTT10=
EXTT11=
PLAYORDER=
